<?xml version="1.0" encoding="UTF-8" standalone="no"?>
<svg
   xmlns:dc="http://purl.org/dc/elements/1.1/"
   xmlns:cc="http://creativecommons.org/ns#"
   xmlns:rdf="http://www.w3.org/1999/02/22-rdf-syntax-ns#"
   xmlns:svg="http://www.w3.org/2000/svg"
   xmlns="http://www.w3.org/2000/svg"
   xmlns:sodipodi="http://sodipodi.sourceforge.net/DTD/sodipodi-0.dtd"
   xmlns:inkscape="http://www.inkscape.org/namespaces/inkscape"
   width="240"
   height="64"
   viewBox="0 0 240 64"
   fill="none"
   version="1.1"
   id="svg3957"
   sodipodi:docname="logo_FAUGI_2.svg"
   inkscape:version="0.92.4 (5da689c313, 2019-01-14)">
  <metadata
     id="metadata3963">
    <rdf:RDF>
      <cc:Work
         rdf:about="">
        <dc:format>image/svg+xml</dc:format>
        <dc:type
           rdf:resource="http://purl.org/dc/dcmitype/StillImage" />
        <dc:title></dc:title>
      </cc:Work>
    </rdf:RDF>
  </metadata>
  <defs
     id="defs3961" />
  <sodipodi:namedview
     pagecolor="#ffffff"
     bordercolor="#666666"
     borderopacity="1"
     objecttolerance="10"
     gridtolerance="10"
     guidetolerance="10"
     inkscape:pageopacity="0"
     inkscape:pageshadow="2"
     inkscape:window-width="535"
     inkscape:window-height="405"
     id="namedview3959"
     showgrid="false"
     inkscape:zoom="7.3541667"
     inkscape:cx="178.88416"
     inkscape:cy="32"
     inkscape:window-x="44"
     inkscape:window-y="187"
     inkscape:window-maximized="0"
     inkscape:current-layer="svg3957" />
  <path
     fill-rule="evenodd"
     clip-rule="evenodd"
     d="M0 4L60.7058 14.8571V59.9999L0 49.1428V4Z"
     fill="#A90060"
     id="path3839" />
  <path
     fill-rule="evenodd"
     clip-rule="evenodd"
     d="M49.7529 42.0309C49.7529 42.0309 49.7529 42.02 49.7529 41.9981C49.7529 41.9326 49.7851 41.8888 49.8288 41.8448C49.959 41.1445 50.5021 40.5752 51.1869 40.4219L51.1546 40.411C51.2411 40.3345 51.4154 40.1378 51.4259 40.0279C51.3171 40.0607 51.1326 40.2361 51.0455 40.3014V39.3931C51.1432 39.4589 51.3168 39.6338 51.4259 39.6666C51.4154 39.5573 51.2411 39.36 51.1546 39.2835H52.067C51.9799 39.36 51.8063 39.557 51.7957 39.6666C51.9039 39.6338 52.089 39.4586 52.1761 39.3931V40.3014C52.0784 40.2358 51.9042 40.0607 51.7957 40.0279C51.8063 40.1265 51.9259 40.2686 52.013 40.3673C52.0347 40.3673 52.0567 40.3782 52.0567 40.411H52.0673C52.0673 40.4219 52.0673 40.4219 52.0673 40.4438C52.73 40.6189 53.2518 41.1663 53.3711 41.8555C53.404 41.8995 53.4365 41.9432 53.4365 42.0088C53.4365 42.0197 53.4365 42.0416 53.4365 42.0416C53.5125 42.1181 53.5667 42.2167 53.5667 42.3372C53.5667 42.4356 53.523 42.523 53.4365 42.5889C53.4365 42.5889 53.4365 42.5998 53.4365 42.6217C53.4365 42.6982 53.3711 42.7747 53.2952 42.7856C53.1643 43.1357 52.9473 43.4423 52.6429 43.6615V43.6396C52.6541 43.7271 52.6429 43.8694 52.5564 43.935C52.4039 44.0665 52.1866 44.0665 52.035 44.1651C51.9042 44.2416 51.8397 44.3949 51.6978 44.4277C51.5025 44.4933 51.2851 44.4168 51.0895 44.4602C50.8068 44.537 50.7197 44.7228 50.5027 44.7228C50.2637 44.7228 50.318 44.5698 49.9376 44.5039C49.688 44.3725 49.3942 44.1648 49.1446 44.0549C48.7426 43.891 48.2646 43.891 47.8191 43.7923C47.417 43.7158 47.0692 43.5516 46.6566 43.4969C46.4176 43.4529 45.5481 43.486 45.4182 43.3218C45.3205 43.1138 45.6023 43.0592 45.646 42.5446C45.646 42.5227 45.6572 42.4681 45.6677 42.4022C45.4182 42.5006 45.1575 42.4681 45.005 42.4022C44.8748 42.3582 44.5707 42.1287 44.5707 41.7893C44.8314 41.9095 45.3965 42.0628 45.483 41.4608C45.5484 40.9356 45.0809 40.4869 44.3751 40.6836C43.8753 40.8151 43.1577 41.8658 43.8099 42.3254C44.136 42.5443 44.6246 42.7629 44.5598 43.3321C44.3531 43.0695 44.0706 42.949 43.7008 42.9821C44.2442 43.387 44.6575 43.4308 45.222 43.7371C45.7111 44.0328 46.081 44.5143 46.461 44.5252C46.7654 44.5361 46.9173 44.1858 46.6346 43.9122C46.9279 43.8464 47.3079 44.0762 47.417 44.3828C47.5689 44.7987 47.4493 45.1053 47.1997 45.2693C47.5469 45.4554 47.7971 45.8276 47.6777 46.3528C47.5689 46.7902 47.1343 46.7902 47.2974 47.3376C47.0584 47.272 46.8953 47.1078 46.8411 46.878C46.8082 46.7137 46.7757 46.5386 46.6886 46.4621C46.7214 46.7903 46.5367 47.283 46.0912 47.5019C45.7868 47.6552 45.3088 47.7101 44.9399 47.3267C44.7985 47.7645 44.266 48.1257 43.7554 48.1148C43.5164 48.1148 43.2774 48.0164 43.1032 47.9068C42.973 48.235 42.6469 48.5526 42.3207 48.7059C41.9946 48.5526 41.6797 48.2244 41.5495 47.9068C41.3647 48.0161 41.1363 48.1148 40.8973 48.1148C40.3758 48.1257 39.865 47.7648 39.7128 47.3267C39.3433 47.7101 38.8652 47.6552 38.5611 47.5019C38.1157 47.283 37.9309 46.7903 37.9635 46.4621C37.8875 46.5386 37.8553 46.7137 37.8224 46.878C37.7573 47.1187 37.5943 47.283 37.3553 47.3376C37.5183 46.7902 37.0946 46.7902 36.9749 46.3528C36.8441 45.8276 37.1051 45.4554 37.4635 45.2693C37.2028 45.1053 37.0942 44.8097 37.2356 44.3828C37.3438 44.0762 37.7242 43.8464 38.018 43.9122C37.7242 44.1855 37.8872 44.5471 38.1916 44.5252C38.572 44.5143 38.9415 44.0328 39.4301 43.7371C39.9952 43.4305 40.4081 43.387 40.9515 42.9821C40.582 42.9493 40.2996 43.0804 40.0928 43.3321C40.0277 42.7519 40.5274 42.544 40.8427 42.3254C41.4943 41.8655 40.7773 40.8148 40.2884 40.6836C39.5711 40.4869 39.104 40.9353 39.1691 41.4608C39.2345 42.0628 39.8213 41.8986 40.0603 41.7893C40.0708 42.1284 39.7667 42.3582 39.6471 42.4022C39.5277 42.4572 39.343 42.4896 39.1368 42.4462C39.1691 42.5118 39.1911 42.5886 39.2128 42.632C39.2782 42.7963 39.4735 42.9605 39.5063 43.1354C39.5172 43.2122 39.4738 43.2887 39.4084 43.3436C39.1694 43.5297 38.7784 43.442 38.4849 43.4092C38.3004 43.3983 37.9635 43.4092 37.7787 43.4201C37.0614 43.4642 36.442 43.8251 35.8884 44.2192C35.7907 44.2851 35.508 44.4599 35.2795 44.6023C35.3121 44.701 35.3558 44.843 35.3449 44.9417C35.4754 45.0073 35.5517 45.2149 35.4643 45.3904C35.508 45.4891 35.5403 45.6312 35.4751 45.7189C35.5731 45.8722 35.4643 46.058 35.3989 46.0911C35.3012 46.1351 35.1276 46.1351 35.0297 45.9818C34.8666 45.9378 34.7907 45.8503 34.7578 45.7411C34.4646 45.6643 34.3558 45.4126 34.5188 45.2268C34.3452 45.139 34.2798 45.095 34.1385 44.9857C33.9866 44.9748 33.7367 44.8764 33.7367 44.6135C33.4431 44.6026 33.2475 44.4387 33.3021 44.0883C33.1499 44.0443 33.0631 43.979 33.0414 43.782C33.0088 43.5085 33.2804 43.2568 33.3892 43.0926C33.3783 42.9833 33.2915 42.6767 33.2915 42.5783C33.1068 42.5015 33.0088 42.3157 33.0414 42.1293C32.7807 41.9213 32.9546 41.615 32.922 41.5276C32.8786 41.3961 32.7807 41.4074 32.7156 41.4617C32.7156 41.3633 32.7481 41.3193 32.7807 41.2759C32.6396 41.21 32.5742 41.0461 32.6396 40.86L31.0097 36.887C30.8141 36.8214 30.749 36.7336 30.7815 36.5913C30.6293 36.5366 30.51 36.3945 30.51 36.2191C30.51 36.2081 30.51 36.1866 30.51 36.1866C30.4012 36.2303 30.249 36.2303 30.1622 36.0661L29.7275 35.8035C29.7709 35.7488 29.6079 35.771 29.4665 35.6067C29.2818 35.4206 29.2058 35.1252 29.2275 34.7531L29.6296 34.9061C29.6404 34.8623 29.6621 34.8077 29.6947 34.7746C29.651 34.72 29.6404 34.6544 29.651 34.5997C29.6401 34.5888 29.6184 34.5779 29.6076 34.567C29.6401 34.4686 29.7055 34.3702 29.7706 34.2713C29.7815 34.2166 29.8143 34.162 29.8794 34.107C29.8794 34.0855 29.8794 34.0855 29.8794 34.0855C29.8686 34.0527 29.8794 34.0087 29.912 33.9868C29.9445 33.9868 29.9771 33.998 29.9879 34.0196C30.1402 33.8666 30.3249 33.757 30.4771 33.7023C29.7926 33.7133 29.3469 33.4066 29.0428 33.0129C29.3035 32.6735 29.7926 32.4327 30.3466 32.3672C29.5208 32.2357 28.8255 31.7105 28.7709 31.0973C29.1079 30.8893 29.6621 30.824 30.2053 30.8784C29.3469 30.5718 28.7384 29.9042 28.7058 29.3134C29.1621 29.1819 29.6404 29.2478 30.0639 29.3462C29.6293 29.0177 28.934 28.4269 29.0208 27.562C29.4337 27.4636 30.2052 27.7481 30.5202 27.8905C29.4988 27.3106 29.1401 25.9533 29.6727 25.1761C29.9988 25.3622 31.4437 26.8619 31.6827 27.0368C30.944 26.1722 30.5853 25.5486 30.3789 24.9688C30.1398 24.3337 30.129 23.2174 30.9003 22.8455C31.2698 23.6992 32.5628 25.8771 33.2798 26.7857C33.356 26.7198 33.432 26.6215 33.5188 26.5996C33.6927 27.147 34.2033 27.8802 34.6707 28.2414C34.6813 28.1974 34.7355 28.0663 34.8118 27.9348C35.3006 28.6789 36.5828 29.6971 36.9957 30.3094C37.3218 30.7694 37.3218 31.1962 36.8652 31.6228C36.6916 31.8089 36.3438 32.1264 36.6479 32.5751C37.1259 33.2867 38.1907 33.2427 38.5057 32.641C37.8212 32.5645 37.6151 31.7217 38.0494 31.2293C38.2233 31.5575 38.625 31.7108 39.0054 31.5466C39.2661 31.4373 39.4512 31.3058 39.5705 31.1965C39.0054 31.3823 38.5274 31.0432 38.5928 30.474C39.0385 30.8571 39.4946 30.4852 39.5817 30.3866C39.8641 30.0584 39.9509 29.6859 39.8312 29.1167C39.723 28.6245 39.2339 27.8364 38.8969 27.5845C38.8532 27.6285 38.7661 27.7268 38.6033 27.7162C38.5054 27.6834 38.3535 27.6066 38.2338 27.5626C37.9077 27.4642 37.5711 27.5407 37.3537 27.6722C36.9734 27.9129 37.0059 28.1646 37.0276 28.3616C36.4303 28.0332 36.6473 27.4749 37.408 27.2781C36.8866 27.2781 36.452 27.7596 36.3432 27.8252C36.0499 28.0335 35.6367 27.9894 35.4088 27.8692C34.9414 27.6503 34.8437 27.092 34.9742 26.9828C35.0288 27.1795 35.1698 27.3549 35.4414 27.3877C35.8435 27.4318 36.2238 27.2563 36.5171 27.1251C36.7778 27.0158 37.1907 26.939 37.484 26.9503C36.9517 26.6543 36.1367 26.6874 35.8543 27.1358C35.6698 26.9937 35.5607 26.8735 35.5173 26.5778C35.3654 25.7897 35.9631 25.3847 36.6367 25.3847C36.615 25.1989 36.7452 25.0999 36.9194 25.1658C36.9194 25.0893 36.9408 25.0234 36.9845 24.9906C36.974 24.9906 36.9523 24.9797 36.9303 24.9797C36.2781 24.9357 35.6587 24.728 35.322 24.378C34.7352 23.7432 35.6587 22.9441 35.3329 22.3206C35.0176 22.463 34.7786 22.6488 34.3332 22.7037C34.2898 22.8021 34.2572 22.9885 34.2355 23.0868C34.0836 23.7872 34.7789 23.9074 34.6053 24.6518C34.5182 24.9909 34.2684 25.1114 34.1924 25.5055C34.1924 25.5055 34.1379 25.7903 34.3989 26.0307C33.8229 26.0416 33.5405 25.5711 33.7144 25.1114C33.8012 24.9257 33.986 24.7614 33.986 24.5425C33.6924 24.9256 33.4425 24.9147 32.9971 24.7723C32.7906 24.7068 32.7689 24.9912 32.8991 25.221C32.6059 25.0352 32.5188 24.7395 32.5188 24.6081C32.5188 24.2905 32.7578 24.1482 33.0079 24.2031C33.1384 24.214 33.41 24.4001 33.4208 24.1375C33.4642 23.6885 32.7686 23.6998 32.8991 22.9772C32.9862 22.6163 33.3883 22.4192 34.0077 22.3427C34.0728 22.2769 34.2355 22.1345 34.3118 22.0033C34.6593 21.4232 35.0179 21.2808 35.2244 21.4013C35.4851 21.5331 35.6048 21.6424 35.8112 21.7517C35.974 21.8391 36.1479 21.8831 36.2675 22.0143C36.5282 22.3534 36.2781 22.8789 36.137 23.2074C36.0391 23.3935 35.8112 23.8312 35.9194 24.1485C36.0282 24.5319 36.6693 24.7836 37.0496 24.8601C37.0602 24.8601 37.0933 24.871 37.1147 24.871V24.7177C36.9954 24.521 36.9083 24.2802 36.8212 24.072C36.5605 23.3825 36.952 23.0978 37.5277 22.9557C37.5931 22.9117 37.669 22.8898 37.7667 22.9229H37.7775L37.7884 23.0431L37.8755 23.0213L37.8643 22.8789H37.8969C37.8318 22.8352 37.7992 22.7477 37.7992 22.6709C37.7992 22.5835 37.8318 22.5176 37.8643 22.4739H37.7775C37.8414 22.4174 37.8969 22.3446 37.9406 22.2659C37.8643 22.3118 37.7971 22.3731 37.7341 22.4411V21.7954C37.7947 21.8616 37.8682 21.9283 37.9406 21.9596C37.902 21.8807 37.8369 21.8178 37.7775 21.7513H38.4189C38.3511 21.8175 38.2781 21.8776 38.2341 21.9596C38.3137 21.9207 38.3785 21.86 38.4406 21.7954V22.4411C38.3797 22.3728 38.3095 22.3166 38.2341 22.2659C38.289 22.3385 38.3465 22.4101 38.4189 22.4739H38.3209C38.3643 22.5179 38.386 22.5835 38.386 22.6709C38.386 22.7477 38.3538 22.8242 38.3101 22.8789H38.3209L38.3101 23.0213L38.386 23.0431L38.3972 22.9229H38.4077C38.5054 22.8901 38.5816 22.912 38.6467 22.9557C39.2227 23.0871 39.6139 23.3716 39.3532 24.072C39.2773 24.2802 39.1796 24.521 39.0599 24.7177V24.8161C39.6356 24.6303 40.6896 23.9845 40.9615 23.6014C40.9937 23.5686 41.0052 23.5358 41.0266 23.5246V23.0871C40.8092 22.748 40.6248 22.3318 40.5051 21.9487C40.1356 20.9529 40.679 20.5261 41.5269 20.3618C41.6245 20.296 41.7333 20.2635 41.8741 20.3178L41.8852 20.4711L42.0697 20.4602L42.0588 20.2519C42.1025 20.2632 42.1351 20.2632 42.1676 20.2632C42.0368 20.1973 41.9609 20.0549 41.9609 19.8907C41.9609 19.7814 42.0046 19.6499 42.1022 19.5841H41.9609C42.0263 19.5075 42.1782 19.3433 42.1999 19.234C42.1022 19.2668 41.95 19.4201 41.8632 19.4969V18.6757C41.95 18.7416 42.1022 18.8949 42.1999 18.9165C42.1893 18.8181 42.0263 18.6651 41.9609 18.5883H42.7756C42.6891 18.6651 42.5477 18.8293 42.5148 18.9165C42.6236 18.9058 42.7867 18.7416 42.8627 18.6757V19.4969C42.7867 19.4201 42.6236 19.2668 42.5148 19.234C42.5477 19.3433 42.6891 19.5075 42.7756 19.5841H42.6237C42.7213 19.6499 42.7756 19.7811 42.7756 19.8907C42.7756 20.044 42.689 20.1973 42.5694 20.2632C42.6016 20.2632 42.6342 20.2632 42.667 20.2519L42.6559 20.4602L42.8407 20.4711L42.8735 20.3178C43.0143 20.2738 43.1231 20.3069 43.2102 20.3618C44.0685 20.5367 44.6117 20.9526 44.2421 21.9487C44.1008 22.3318 43.916 22.748 43.7207 23.0871L43.7102 23.5027C43.7207 23.5246 43.7539 23.5577 43.7756 23.6014C44.0577 23.9845 45.1005 24.6303 45.6771 24.8161V24.7177C45.5577 24.521 45.4703 24.2802 45.3832 24.072C45.1225 23.3825 45.514 23.0978 46.0897 22.9557C46.1551 22.9117 46.231 22.8898 46.3287 22.9229H46.3399L46.3504 23.0431L46.4375 23.0213L46.4264 22.8789H46.4375C46.3827 22.8352 46.3504 22.7477 46.3504 22.6709C46.3504 22.5835 46.3615 22.5176 46.4158 22.4739H46.3182L46.3504 22.4414C46.3827 22.4086 46.4158 22.3755 46.448 22.3318C46.4592 22.3212 46.4809 22.2881 46.4918 22.2662C46.4812 22.2772 46.4481 22.299 46.4264 22.31C46.3721 22.343 46.3399 22.3758 46.307 22.4086L46.2748 22.4414V21.7957L46.307 21.8394C46.3399 21.8503 46.3724 21.8834 46.4264 21.9162C46.4375 21.9487 46.4701 21.9487 46.4918 21.9602C46.4812 21.949 46.4595 21.9271 46.448 21.8943C46.4158 21.8616 46.3827 21.8178 46.3504 21.796L46.3182 21.752H46.9592L46.9264 21.796C46.9158 21.8178 46.8833 21.8616 46.8287 21.8943C46.8182 21.9268 46.7965 21.9384 46.7965 21.9602C46.807 21.949 46.8287 21.949 46.8619 21.9162C46.8941 21.8834 46.9378 21.8503 46.9595 21.8394L47.0032 21.7957V22.4414L46.9595 22.4086C46.9484 22.3758 46.8941 22.343 46.8619 22.31C46.829 22.2993 46.8182 22.2775 46.7965 22.2662C46.7965 22.2772 46.807 22.31 46.8287 22.3318C46.8724 22.3758 46.9053 22.4086 46.9264 22.4414L46.9592 22.4739H46.8833C46.9155 22.5179 46.9481 22.5835 46.9481 22.6709C46.9481 22.7477 46.9158 22.8242 46.8504 22.8789H46.8833L46.8721 23.0213L46.9481 23.0431L46.9592 22.9229H46.9698C47.0674 22.8901 47.144 22.912 47.2088 22.9557C47.7851 23.0871 48.1654 23.3716 47.9047 24.072C47.8281 24.2802 47.7305 24.521 47.622 24.7177V24.871C47.6437 24.871 47.6657 24.8601 47.6868 24.8601C48.0678 24.7836 48.7088 24.5319 48.817 24.1485C48.9147 23.8203 48.6868 23.3938 48.5997 23.2074C48.4584 22.8789 48.1977 22.3537 48.4689 22.0143C48.5777 21.8828 48.7516 21.8391 48.9147 21.7517C49.1214 21.6424 49.2513 21.5328 49.5015 21.4013C49.7083 21.2811 50.0666 21.4344 50.4138 22.0033C50.5009 22.1348 50.6534 22.2769 50.7182 22.3427C51.3487 22.4192 51.7396 22.616 51.8268 22.9772C51.9681 23.6998 51.2616 23.6888 51.3159 24.1375C51.327 24.4001 51.5986 24.214 51.7291 24.2031C51.9681 24.1375 52.2071 24.2905 52.2071 24.6081C52.2071 24.7395 52.1312 25.0459 51.8268 25.221C51.9576 24.9912 51.9356 24.7071 51.7291 24.7723C51.2833 24.9147 51.0226 24.9256 50.7402 24.5425C50.7402 24.7505 50.9361 24.9257 51.0121 25.1114C51.1857 25.5601 50.8813 26.0416 50.3276 26.0307C50.5666 25.79 50.5344 25.5055 50.5344 25.5055C50.4473 25.1005 50.1971 24.9803 50.1212 24.6518C49.9364 23.9074 50.632 23.7869 50.491 23.0868C50.4798 22.9885 50.4361 22.7911 50.3933 22.7037C49.9476 22.6378 49.7089 22.463 49.3933 22.3206C49.0566 22.9444 49.9913 23.7435 49.4044 24.378C49.0678 24.728 48.4478 24.936 47.7962 24.9797C47.7856 24.9797 47.7639 24.9906 47.7419 24.9906C47.7856 25.0234 47.8073 25.0893 47.8073 25.1658C47.9809 25.0999 48.1112 25.1986 48.1006 25.3847C48.7522 25.3847 49.361 25.7897 49.2091 26.5778C49.1654 26.8735 49.0566 26.9937 48.883 27.1358C48.5898 26.6871 47.7745 26.6543 47.2531 26.9503C47.5358 26.939 47.9484 27.0158 48.2091 27.1251C48.5135 27.2566 48.8936 27.4318 49.2956 27.3877C49.5563 27.3549 49.7089 27.1795 49.7526 26.9828C49.8828 27.092 49.7848 27.6394 49.3176 27.8692C49.0786 27.9894 48.666 28.0335 48.3722 27.8252C48.264 27.7596 47.8287 27.2781 47.3073 27.2781C48.0792 27.4861 48.2745 28.0332 47.6877 28.3616C47.6988 28.1755 47.7314 27.9126 47.351 27.6722C47.1449 27.5404 46.8076 27.4639 46.471 27.5626C46.3516 27.6066 46.1997 27.6944 46.1017 27.7162C45.9387 27.7268 45.8627 27.6394 45.8079 27.5845C45.4712 27.8364 44.9604 28.6245 44.8736 29.1167C44.7648 29.6859 44.8407 30.0584 45.1231 30.3866C45.2208 30.4852 45.6665 30.8571 46.112 30.474C46.1774 31.0323 45.6994 31.3717 45.1343 31.1965C45.2536 31.3167 45.4387 31.4373 45.6994 31.5466C46.0798 31.7108 46.4818 31.5575 46.6554 31.2293C47.0897 31.7217 46.8839 32.5645 46.1991 32.641C46.5252 33.2427 47.5789 33.2867 48.068 32.5751C48.3613 32.1264 48.0243 31.7979 47.8396 31.6228C47.3938 31.1853 47.3938 30.7691 47.7088 30.3094C48.122 29.6856 49.4041 28.668 49.8927 27.9348C49.9693 28.0663 50.0235 28.1974 50.0452 28.2414C50.5015 27.8911 51.0124 27.1576 51.186 26.5996C51.2836 26.6106 51.349 26.7089 51.425 26.7857C52.142 25.8774 53.4353 23.6992 53.8045 22.8455C54.5869 23.2177 54.5764 24.323 54.3259 24.9688C54.1198 25.5486 53.772 26.1725 53.0221 27.0368C53.2611 26.8619 54.7174 25.3622 55.0324 25.1761C55.5758 25.9536 55.2066 27.3106 54.1849 27.8905C54.511 27.7481 55.2609 27.453 55.6849 27.562C55.7714 28.4269 55.0656 29.0177 54.6418 29.3462C55.0544 29.2478 55.5324 29.1819 55.9999 29.3134C55.9676 29.9042 55.3694 30.5611 54.4787 30.8784C55.0438 30.8237 55.5978 30.8893 55.9345 31.0973C55.8585 31.7105 55.1852 32.2357 54.3374 32.3672C54.913 32.4327 55.4128 32.6735 55.6629 33.0129C55.3691 33.4179 54.913 33.7242 54.2283 33.7023C54.5544 33.8116 54.9459 34.151 55.1083 34.556C54.7063 34.8736 54.2177 35.0703 53.0986 34.6653C54.3913 35.2127 54.1418 35.4643 54.3259 36.0336C54.0981 36.1319 53.8808 36.3727 53.2723 36.2194C52.9244 36.1319 52.3488 35.5846 51.8593 35.2455C52.0118 35.4313 52.7505 35.9568 53.0766 36.2634C53.4239 36.6134 53.1849 36.9641 53.1849 37.2701C52.9241 37.2701 52.4678 37.4783 52.1529 37.2045C52.0552 37.1061 50.7182 35.4422 50.5446 35.2782C50.5883 35.4313 51.4569 36.5038 51.8162 37.1168C52.1095 37.5767 51.7074 37.8943 51.6532 38.1569C51.3593 38.0582 50.9361 38.2443 50.7182 37.8721C50.5121 37.5218 49.8598 36.2522 49.6103 35.8912C49.7079 36.1647 50.3927 37.6095 50.4355 37.73C50.5986 38.2224 50.186 38.3099 50.0229 38.6383C49.7727 38.4522 49.3276 38.5943 49.1428 38.135C49.034 37.8174 48.7625 36.723 48.6214 36.4276C48.632 36.7558 48.7296 37.1826 48.795 37.6641C48.8604 38.1459 48.4147 38.1241 48.1651 38.4085C47.9583 38.2224 47.5346 38.2661 47.4806 37.8284C47.4152 37.4452 47.4047 36.5041 47.4047 36.5041C47.3393 36.5591 47.3064 36.57 47.2522 36.6356C47.0891 36.4498 46.7636 36.4498 46.6548 36.2306C46.6111 36.2415 46.5894 36.2746 46.546 36.3074C46.1988 36.8982 46.1656 38.0363 46.6548 38.4413C46.5029 38.4413 46.3287 38.4307 46.2205 38.3757C46.4483 38.8244 46.9264 38.9775 47.4809 38.7807C47.4698 38.89 47.4481 38.9556 47.405 39.0215C48.0024 39.1198 48.2634 39.35 48.4912 39.7437C48.7739 40.2689 48.459 40.9368 48.5566 41.2103C48.622 41.3855 48.8173 41.5497 49.1434 41.3964C48.9909 42.0859 48.122 42.0094 47.905 41.6262C47.8285 41.9547 47.905 42.3157 48.068 42.4581C47.7962 42.469 47.5677 42.3594 47.427 42.1515C47.3941 42.2173 47.3941 42.3048 47.3833 42.3813C47.2419 42.3048 47.1443 42.2173 47.0789 42.1405C47.0246 42.2938 47.0677 42.4141 47.1765 42.5895C47.3396 42.8303 47.6762 42.9396 47.9264 43.0382C48.4909 43.2465 49.1103 43.4872 49.6649 43.4104C49.7303 43.4104 50.0452 43.2574 50.0992 42.9948C50.0886 43.0057 50.0886 43.0057 50.0886 43.0057C50.0449 42.9289 50.0121 42.8415 49.9798 42.7538C49.9039 42.7428 49.8385 42.6882 49.8385 42.5898C49.8385 42.5789 49.8385 42.557 49.8385 42.557C49.7625 42.4912 49.7082 42.4037 49.7082 42.3054C49.6329 42.2061 49.6763 42.1184 49.7529 42.0309ZM41.777 23.8847C41.375 24.3009 40.4843 24.8042 39.6148 24.9903C40.1254 24.9903 41.0163 24.9466 41.136 24.8151C41.1037 25.1436 40.4189 25.5046 39.9735 25.6033C40.3433 25.6473 40.6908 25.6033 40.9729 25.4721C40.821 25.7019 40.6362 25.8771 40.343 25.9754C40.6688 26.3586 41.2773 26.6102 41.9184 26.5553C41.7665 26.7414 41.4841 26.8619 41.2339 26.8288C41.8099 27.7481 42.2336 28.7004 42.3204 29.7952C42.4181 28.6895 42.8419 27.7484 43.4178 26.8288C43.1683 26.8616 42.875 26.7414 42.7225 26.5553C43.353 26.6212 43.9941 26.3692 44.309 25.9754C44.0158 25.8771 43.831 25.7019 43.6785 25.4721C43.9724 25.6033 44.3091 25.6579 44.6786 25.6033C44.2328 25.5049 43.5483 25.1436 43.5161 24.8151C43.6243 24.9469 44.5155 24.9903 45.0261 24.9903C44.146 24.8045 43.2659 24.3118 42.875 23.8962C42.5377 23.9065 42.1137 23.8959 41.777 23.8847ZM37.6482 42.5674C37.6919 42.4141 37.6591 42.2389 37.6377 42.1624C37.5723 42.2389 37.4852 42.3266 37.3333 42.4031C37.3224 42.3266 37.3224 42.2389 37.2896 42.1733C37.1482 42.3813 36.92 42.5015 36.6593 42.4796C36.8115 42.3375 36.8983 41.9653 36.8115 41.6481C36.5831 42.0312 35.725 42.1077 35.5731 41.4183C35.8986 41.5713 36.0942 41.4074 36.1593 41.2322C36.2464 40.9587 35.9203 40.2908 36.2247 39.7656C36.442 39.3824 36.7027 39.1417 37.3004 39.0433C37.2567 38.9775 37.2353 38.9119 37.2241 38.8026C37.7784 39.0105 38.2673 38.8463 38.4846 38.3976C38.3764 38.4413 38.1913 38.4632 38.0503 38.4632C38.5394 38.0582 38.5066 36.92 38.1588 36.3293C38.1154 36.2965 38.0937 36.2634 38.0503 36.2525C37.9418 36.4713 37.616 36.4713 37.4635 36.6574C37.3984 36.5916 37.3658 36.5809 37.3007 36.526C37.3007 36.526 37.2899 37.4674 37.2245 37.8502C37.1594 38.2877 36.7464 38.2334 36.5183 38.4304C36.279 38.1569 35.8338 38.1675 35.8986 37.686C35.964 37.2045 36.0511 36.7667 36.0728 36.4495C35.9315 36.7449 35.6596 37.8393 35.5514 38.1569C35.3772 38.6165 34.9209 38.485 34.6713 38.6602C34.5083 38.3317 34.0951 38.2443 34.2581 37.7519C34.3018 37.6204 34.9968 36.1869 35.0839 35.913C34.8449 36.2631 34.193 37.5327 33.9757 37.8939C33.7584 38.2661 33.3455 38.0797 33.0411 38.1784C32.9977 37.9158 32.5848 37.5986 32.8563 37.1386C33.2367 36.5257 34.0842 35.4531 34.1602 35.2998C33.9754 35.464 32.639 37.1386 32.5522 37.2264C32.2481 37.478 31.8352 37.3138 31.5633 37.2919L31.4982 37.1386C31.4548 36.876 31.3243 36.5697 31.6287 36.274C31.9549 35.9674 32.6719 35.4422 32.8458 35.2561C32.3569 35.5952 31.7809 36.1426 31.4117 36.23C31.3572 36.2409 31.2921 36.2519 31.2487 36.2628C31.2487 36.2846 31.2487 36.3068 31.2378 36.3393C31.2378 36.3502 31.2378 36.3721 31.2378 36.3721C31.3683 36.4379 31.4334 36.6128 31.3138 36.7443L33.1719 40.5968C33.3783 40.6624 33.4326 40.8594 33.4 41.0127C33.4109 41.0127 33.5085 41.0236 33.552 41.1001C33.4434 41.1111 33.4434 41.2094 33.4868 41.2862C33.5628 41.4177 33.7913 41.4177 33.813 41.7786C33.9869 41.8552 34.0303 42.0853 33.9652 42.2711C34.0631 42.3585 34.1391 42.5337 34.1391 42.5337C34.2045 42.4244 34.3781 42.4572 34.4435 42.5009C34.6825 42.2711 34.9869 42.3916 35.0954 42.7635C35.2259 43.1466 35.6931 43.3108 35.9755 43.2562C36.3124 43.2122 36.8989 42.9827 37.2142 42.8184C37.3984 42.7207 37.5289 42.6439 37.6482 42.5674Z"
     fill="white"
     id="path3841" />
  <path
     fill-rule="evenodd"
     clip-rule="evenodd"
     d="M77.8669 14.8233C79.643 14.8233 81.8818 15.8466 81.8818 18.2241V21.7754C81.8818 24.153 79.643 25.1763 77.8669 25.1763C76.0908 25.1763 73.8818 24.153 73.8818 21.7754V18.2241C73.8818 15.8466 76.0908 14.8233 77.8669 14.8233ZM77.8669 23.0846C78.852 23.0846 79.5385 22.5278 79.5385 21.5648V18.4348C79.5385 17.4718 78.852 16.915 77.8669 16.915C76.8968 16.915 76.2102 17.4718 76.2102 18.4348V21.5648C76.2102 22.5278 76.8968 23.0846 77.8669 23.0846ZM64.4494 14.8234H67.9377C70.6044 14.8234 71.9997 16.3024 71.9997 18.4737C71.9997 20.6607 70.5734 22.1082 67.9222 22.1082H66.4339V24.7201C66.4339 25.0819 66.2633 25.1763 65.9842 25.1763H64.4494C64.1703 25.1763 63.9998 25.0819 63.9998 24.7201V15.2797C63.9998 14.9965 64.0928 14.8234 64.4494 14.8234ZM66.4339 19.9842H67.9222C69.1315 19.9842 69.6587 19.3076 69.6587 18.5209C69.6587 17.7027 69.1315 17.0419 67.9222 17.0419H66.4339V19.9842ZM91.2937 22.0162C91.2937 21.6551 91.1725 21.5046 90.8391 21.5046H89.3543C89.0268 21.5046 88.9918 21.7369 88.9476 22.0305L88.9452 22.0463C88.824 22.7686 88.1725 23.0696 87.3543 23.0696C86.3543 23.0696 85.6725 22.5278 85.6725 21.5648V18.4348C85.6725 17.4868 86.3543 16.93 87.3543 16.93C88.1725 16.93 88.5967 17.1558 88.9149 17.6523C88.9467 17.6997 88.9712 17.7543 88.9957 17.809L88.9958 17.809L88.9958 17.8091C89.0649 17.9632 89.1347 18.1188 89.3694 18.1188H90.824C91.1725 18.1188 91.2937 18.0436 91.2937 17.6824C91.0967 15.7713 89.2331 14.8233 87.3543 14.8233C85.5513 14.8233 83.2937 15.8616 83.2937 18.2241V21.7754C83.2937 24.138 85.5513 25.1763 87.3543 25.1763C89.2331 25.1763 91.2937 23.9574 91.2937 22.0162ZM63.9998 27.0237C63.9998 26.6783 64.1645 26.5882 64.4342 26.5882H65.8724C66.1421 26.5882 66.3069 26.6783 66.3069 27.0237V32.2352L69.4829 27.0988L69.5246 27.0339C69.6946 26.7686 69.8101 26.5882 70.157 26.5882H71.5653C71.9099 26.5882 71.9997 26.7534 71.9997 27.0237V36.035C71.9997 36.3804 71.8349 36.4705 71.5653 36.4705H70.0821C69.8125 36.4705 69.6477 36.3804 69.6477 36.035V30.8084L66.4717 35.9599L66.4299 36.0248C66.26 36.2901 66.1444 36.4705 65.7975 36.4705H64.4342C64.0896 36.4705 63.9998 36.3053 63.9998 36.035V27.0237ZM83.3236 26.5882H81.8639C81.4383 26.5882 81.319 26.8256 81.2276 27.0075L81.2276 27.0075L81.2276 27.0076L81.2275 27.0077L81.2275 27.0078C81.2112 27.0402 81.1958 27.0708 81.1797 27.098L79.0815 30.787L76.9984 27.098C76.9763 27.0652 76.9561 27.0275 76.9349 26.9877L76.9349 26.9877C76.8395 26.8088 76.7218 26.5882 76.299 26.5882H74.7937C74.444 26.5882 74.3528 26.7531 74.3528 27.023V36.0356C74.3528 36.3805 74.52 36.4705 74.7937 36.4705H76.299C76.5727 36.4705 76.7399 36.3805 76.7399 36.0356V30.952L78.2756 33.5763L78.2775 33.5792C78.3536 33.6994 78.4751 33.8912 78.7013 33.8912H79.4616C79.6897 33.8912 79.8265 33.6962 79.9025 33.5763L81.423 30.952V36.0356C81.423 36.3805 81.5902 36.4705 81.8639 36.4705H83.3236C83.5973 36.4705 83.7645 36.3805 83.7645 36.0356V27.023C83.7645 26.7531 83.6733 26.5882 83.3236 26.5882ZM92.5671 26.5882H94.2799C94.573 26.5882 94.6348 26.8281 94.5576 27.023L90.0673 36.0506C89.8667 36.4405 89.7278 36.4705 89.3884 36.4705H87.6756C87.4441 36.4705 87.367 36.1856 87.4904 36.0056L88.6477 33.7112L85.2067 27.023C85.1295 26.8281 85.1912 26.5882 85.4844 26.5882H87.3207C87.6601 26.5882 87.7836 26.6631 87.9225 26.9781L89.0026 29.1225L89.9284 31.1769L90.8697 29.1375L91.919 27.038C92.0733 26.7231 92.1659 26.5882 92.5671 26.5882ZM74.5955 45.7324H71.6783V38.3183C71.6783 38.0025 71.5725 37.8822 71.2702 37.8822H69.7284C69.4564 37.8822 69.2901 37.9724 69.2901 38.3183V45.7324H66.3728V38.3183C66.3728 37.9724 66.2066 37.8822 65.9345 37.8822H64.4381C64.166 37.8822 63.9998 37.9724 63.9998 38.3183V47.3566C63.9998 47.7025 64.166 47.7927 64.4381 47.7927H76.0012V48.7402C76.0012 49.0861 76.1675 49.1763 76.4396 49.1763H77.679C77.9511 49.1763 78.1174 49.0861 78.1174 48.7402V46.1535C78.1174 45.8828 78.0267 45.7174 77.679 45.7174H76.9686V38.3183C76.9686 37.9724 76.8024 37.8822 76.5303 37.8822H75.0339C74.7467 37.8822 74.5955 37.9724 74.5955 38.3183V45.7324ZM82.3508 45.6619H87.0976C87.4399 45.6619 87.5292 45.8271 87.5292 46.0975V47.329C87.5292 47.5993 87.4399 47.7645 87.0976 47.7645H80.4313C80.089 47.7645 79.9998 47.5993 79.9998 47.329V38.3177C79.9998 38.0474 80.089 37.8822 80.4313 37.8822H86.8447C87.1869 37.8822 87.2762 38.0474 87.2762 38.3177V39.5643C87.2762 39.8346 87.1869 39.9998 86.8447 39.9998H82.3508V41.6369H86.3387C86.681 41.6369 86.7703 41.8021 86.7703 42.0724V43.2439C86.7703 43.5142 86.681 43.6794 86.3387 43.6794H82.3508V45.6619ZM96.9411 44.9314C96.9411 44.5538 96.8199 44.3965 96.4866 44.3965H95.0018C94.6743 44.3965 94.6393 44.6395 94.5951 44.9463L94.5927 44.9629C94.4715 45.718 93.8199 46.0326 93.0018 46.0326C92.0018 46.0326 91.3199 45.4663 91.3199 44.4595V41.1872C91.3199 40.1961 92.0018 39.614 93.0018 39.614C93.8199 39.614 94.2442 39.85 94.5624 40.3692C94.5941 40.4187 94.6186 40.4757 94.6432 40.533L94.6432 40.533L94.6432 40.533L94.6432 40.533C94.7124 40.6942 94.7822 40.8569 95.0169 40.8569H96.4715C96.8199 40.8569 96.9411 40.7782 96.9411 40.4006C96.7442 38.4027 94.8805 37.4116 93.0018 37.4116C91.1987 37.4116 88.9412 38.4971 88.9412 40.967V44.6797C88.9412 47.1496 91.1987 48.2351 93.0018 48.2351C94.8805 48.2351 96.9411 46.9608 96.9411 44.9314ZM64.4442 49.6468H71.5553C71.9078 49.6468 71.9997 49.8199 71.9997 50.1031V51.409C71.9997 51.6922 71.9078 51.8653 71.5553 51.8653H69.2105V59.5435C69.2105 59.9053 69.0419 59.9997 68.766 59.9997H67.2488C66.9729 59.9997 66.8043 59.9053 66.8043 59.5435V51.8653H64.4442C64.0917 51.8653 63.9998 51.6922 63.9998 51.409V50.1031C63.9998 49.8199 64.0917 49.6468 64.4442 49.6468ZM80.9633 54.6426C81.0992 54.5798 82.0655 54.0771 82.0655 52.4903C82.0655 51.0136 81.0086 49.6468 78.5474 49.6468H74.3197C73.9724 49.6468 73.8818 49.8196 73.8818 50.1024V59.5442C73.8818 59.8269 73.9724 59.9997 74.3197 59.9997H78.7588C80.8576 59.9997 82.3524 58.9786 82.3524 56.9834C82.3524 55.2867 81.0841 54.6897 80.9633 54.6426ZM76.2524 57.7689H78.789C79.5289 57.7689 79.9517 57.4547 79.9517 56.7478C79.9517 56.0094 79.4232 55.7894 78.6984 55.7894H76.2524V57.7689ZM76.2524 53.6843V51.8619H78.5474C79.3326 51.8619 79.8007 52.0347 79.8007 52.7417C79.8007 53.3544 79.4232 53.6843 78.5474 53.6843H76.2524ZM87.9841 49.6468C89.8647 49.6468 92.2352 50.6701 92.2352 53.0476V56.5989C92.2352 58.9765 89.8647 59.9997 87.9841 59.9997C86.1035 59.9997 83.7646 58.9765 83.7646 56.5989V53.0476C83.7646 50.6701 86.1035 49.6468 87.9841 49.6468ZM87.9841 57.9081C89.0271 57.9081 89.7541 57.3513 89.7541 56.3883V53.2583C89.7541 52.2952 89.0271 51.7385 87.9841 51.7385C86.9569 51.7385 86.23 52.2952 86.23 53.2583V56.3883C86.23 57.3513 86.9569 57.9081 87.9841 57.9081Z"
     fill="#1A1F6C"
     id="path3843" />
  <path
     d="M111.632 27.8789C110.75 27.8481 110.189 27.3354 110.189 26.5186C110.189 25.6982 110.76 25.1992 111.632 25.1616V27.8789ZM113.819 26.522C113.819 27.3423 113.249 27.8413 112.38 27.8789V25.1616C113.259 25.1924 113.819 25.7051 113.819 26.522ZM111.628 28.5625V29.0854H112.384V28.5625C113.696 28.5215 114.592 27.7798 114.592 26.522C114.592 25.2676 113.707 24.5122 112.384 24.478V23.9824H111.628V24.478C110.312 24.519 109.414 25.2607 109.414 26.5186C109.414 27.7729 110.302 28.5283 111.628 28.5625Z"
     fill="#1A1F6C"
     id="path3845" />
  <path
     d="M118.729 28.3027H116.364V26.8228H118.603V26.1597H116.364V24.7651H118.729V24.0679H115.598V29H118.729V28.3027Z"
     fill="#1A1F6C"
     id="path3847" />
  <path
     d="M120.902 27.062L121.052 24.7651H122.819V28.3027H120.57V28.2549C120.799 27.9814 120.867 27.6123 120.902 27.062ZM120.02 29H123.499V29.9741H124.2V28.3027H123.585V24.0679H120.372L120.191 27.021C120.153 27.6772 120.03 28.0908 119.678 28.3027H119.319V29.9741H120.02V29Z"
     fill="#1A1F6C"
     id="path3849" />
  <path
     d="M128.153 28.3027H125.788V26.8228H128.026V26.1597H125.788V24.7651H128.153V24.0679H125.022V29H128.153V28.3027Z"
     fill="#1A1F6C"
     id="path3851" />
  <path
     d="M129.259 24.0679V29H130.024V27.3389H131.166C132.133 27.3389 132.817 26.6758 132.817 25.7119C132.817 24.7344 132.154 24.0679 131.19 24.0679H129.259ZM130.024 24.7446H130.988C131.661 24.7446 132.034 25.0864 132.034 25.7119C132.034 26.3237 131.648 26.6655 130.988 26.6655H130.024V24.7446Z"
     fill="#1A1F6C"
     id="path3853" />
  <path
     d="M136.503 29H137.317L135.536 24.0679H134.712L132.931 29H133.717L134.172 27.6909H136.052L136.503 29ZM135.085 24.9634H135.143L135.857 27.0483H134.367L135.085 24.9634Z"
     fill="#1A1F6C"
     id="path3855" />
  <path
     d="M141.871 29V24.0679H138.744L138.576 27.0586C138.535 27.7729 138.412 28.3027 137.872 28.3027C137.807 28.3027 137.715 28.2891 137.674 28.2788V28.9966C137.732 29.0171 137.841 29.0376 137.957 29.0376C138.884 29.0376 139.219 28.3027 139.29 27.1064L139.434 24.7651H141.105V29H141.871Z"
     fill="#1A1F6C"
     id="path3857" />
  <path
     d="M143.103 29H145.007C145.964 29 146.634 28.354 146.634 27.4072C146.634 26.4604 145.95 25.8145 144.983 25.8145H143.869V24.0679H143.103V29ZM143.869 28.3164V26.4912H144.805C145.465 26.4912 145.848 26.8193 145.848 27.4072C145.848 27.9917 145.468 28.3164 144.805 28.3164H143.869Z"
     fill="#1A1F6C"
     id="path3859" />
  <path
     d="M151.681 29V24.0679H150.919V26.1392H148.386V24.0679H147.62V29H148.386V26.8364H150.919V29H151.681Z"
     fill="#1A1F6C"
     id="path3861" />
  <path
     d="M155.032 23.9482C153.617 23.9482 152.728 24.9395 152.728 26.5322C152.728 28.1216 153.6 29.1196 155.032 29.1196C156.461 29.1196 157.329 28.1182 157.329 26.5322C157.329 24.9429 156.454 23.9482 155.032 23.9482ZM155.032 24.6626C155.969 24.6626 156.546 25.3872 156.546 26.5322C156.546 27.6704 155.969 28.4053 155.032 28.4053C154.085 28.4053 153.511 27.6704 153.511 26.5322C153.511 25.3872 154.102 24.6626 155.032 24.6626Z"
     fill="#1A1F6C"
     id="path3863" />
  <path
     d="M161.508 28.3027H159.142V26.8228H161.381V26.1597H159.142V24.7651H161.508V24.0679H158.377V29H161.508V28.3027Z"
     fill="#1A1F6C"
     id="path3865" />
  <path
     d="M167.65 29H168.463L166.682 24.0679H165.859L164.078 29H164.864L165.319 27.6909H167.199L167.65 29ZM166.231 24.9634H166.289L167.004 27.0483H165.514L166.231 24.9634Z"
     fill="#1A1F6C"
     id="path3867" />
  <path
     d="M170.092 29V24.7686H172.338V24.0679H169.323V29H170.092Z"
     fill="#1A1F6C"
     id="path3869" />
  <path
     d="M176.431 28.3027H174.065V26.8228H176.304V26.1597H174.065V24.7651H176.431V24.0679H173.3V29H176.431V28.3027Z"
     fill="#1A1F6C"
     id="path3871" />
  <path
     d="M181.597 29V24.0679H180.835V26.1392H178.302V24.0679H177.536V29H178.302V26.8364H180.835V29H181.597Z"
     fill="#1A1F6C"
     id="path3873" />
  <path
     d="m 188.96628,29.1196 c 1.1,0 1.91,-0.6494 2.047,-1.6235 h -0.762 c -0.137,0.5571 -0.632,0.9092 -1.285,0.9092 -0.889,0 -1.443,-0.7212 -1.443,-1.8697 0,-1.1518 0.554,-1.873 1.439,-1.873 0.65,0 1.145,0.3896 1.289,0.9946 h 0.762 c -0.123,-1.0049 -0.964,-1.709 -2.051,-1.709 -1.37,0 -2.221,0.9878 -2.221,2.5874 0,1.5962 0.854,2.584 2.225,2.584 z"
     id="path3875"
     inkscape:connector-curvature="0"
     style="fill:#1a1f6c" />
  <path
     d="m 193.87228,29 v -4.2349 h 1.549 v -0.6972 h -3.866 v 0.6972 h 1.552 V 29 Z"
     id="path3877"
     inkscape:connector-curvature="0"
     style="fill:#1a1f6c" />
  <path
     d="m 198.38628,29 c 1.053,0 1.685,-0.5298 1.685,-1.3979 0,-0.6426 -0.444,-1.1177 -1.111,-1.1861 v -0.0581 c 0.485,-0.082 0.865,-0.5434 0.865,-1.0596 0,-0.7587 -0.557,-1.2304 -1.484,-1.2304 h -1.982 V 29 Z m -1.261,-4.2827 h 1.039 c 0.567,0 0.899,0.2666 0.899,0.7212 0,0.4682 -0.352,0.7177 -1.029,0.7177 h -0.909 z m 0,3.6333 v -1.5894 h 1.063 c 0.721,0 1.1,0.27 1.1,0.7862 0,0.5229 -0.366,0.8032 -1.056,0.8032 z"
     id="path3879"
     inkscape:connector-curvature="0"
     style="fill:#1a1f6c" />
  <path
     d="m 203.16928,23.9482 c -1.415,0 -2.303,0.9913 -2.303,2.584 0,1.5894 0.871,2.5874 2.303,2.5874 1.429,0 2.297,-1.0014 2.297,-2.5874 0,-1.5893 -0.875,-2.584 -2.297,-2.584 z m 0,0.7144 c 0.937,0 1.514,0.7246 1.514,1.8696 0,1.1382 -0.577,1.8731 -1.514,1.8731 -0.946,0 -1.521,-0.7349 -1.521,-1.8731 0,-1.145 0.592,-1.8696 1.521,-1.8696 z"
     id="path3881"
     inkscape:connector-curvature="0"
     style="fill:#1a1f6c" />
  <path
     d="M113.648 36V31.0679H109.653V36H110.422V31.7686H112.89V36H113.648Z"
     fill="#1A1F6C"
     id="path3883" />
  <path
     d="M117.003 30.9482C115.588 30.9482 114.7 31.9395 114.7 33.5322C114.7 35.1216 115.571 36.1196 117.003 36.1196C118.432 36.1196 119.3 35.1182 119.3 33.5322C119.3 31.9429 118.425 30.9482 117.003 30.9482ZM117.003 31.6626C117.94 31.6626 118.517 32.3872 118.517 33.5322C118.517 34.6704 117.94 35.4053 117.003 35.4053C116.056 35.4053 115.482 34.6704 115.482 33.5322C115.482 32.3872 116.074 31.6626 117.003 31.6626Z"
     fill="#1A1F6C"
     id="path3885" />
  <path
     d="M122.752 36.0376C123.621 36.0376 123.993 35.5181 124.39 34.5884L125.9 31.0679H125.101L123.908 34.0449H123.85L122.623 31.0679H121.806L123.474 34.8892C123.289 35.207 123.053 35.3301 122.708 35.3301C122.544 35.3301 122.458 35.3096 122.424 35.2993V35.9932C122.458 36.0068 122.585 36.0376 122.752 36.0376Z"
     fill="#1A1F6C"
     id="path3887" />
  <path
     d="M130.752 36V31.0679H126.757V36H127.526V31.7686H129.993V36H130.752Z"
     fill="#1A1F6C"
     id="path3889" />
  <path
     d="M131.991 31.0679V36H132.757V34.3389H133.899C134.866 34.3389 135.549 33.6758 135.549 32.7119C135.549 31.7344 134.886 31.0679 133.922 31.0679H131.991ZM132.757 31.7446H133.721C134.394 31.7446 134.767 32.0864 134.767 32.7119C134.767 33.3237 134.38 33.6655 133.721 33.6655H132.757V31.7446Z"
     fill="#1A1F6C"
     id="path3891" />
  <path
     d="M139.236 36H140.049L138.268 31.0679H137.445L135.664 36H136.45L136.905 34.6909H138.785L139.236 36ZM137.817 31.9634H137.875L138.59 34.0483H137.1L137.817 31.9634Z"
     fill="#1A1F6C"
     id="path3893" />
  <path
     d="M142.936 36C143.989 36 144.621 35.4702 144.621 34.6021C144.621 33.9595 144.177 33.4844 143.51 33.416V33.3579C143.995 33.2759 144.375 32.8145 144.375 32.2983C144.375 31.5396 143.818 31.0679 142.891 31.0679H140.909V36H142.936ZM141.675 31.7173H142.714C143.281 31.7173 143.613 31.9839 143.613 32.4385C143.613 32.9067 143.26 33.1562 142.584 33.1562H141.675V31.7173ZM141.675 35.3506V33.7612H142.738C143.459 33.7612 143.838 34.0312 143.838 34.5474C143.838 35.0703 143.472 35.3506 142.782 35.3506H141.675Z"
     fill="#1A1F6C"
     id="path3895" />
  <path
     d="M149.298 36V31.0679H146.171L146.003 34.0586C145.962 34.7729 145.839 35.3027 145.299 35.3027C145.234 35.3027 145.142 35.2891 145.101 35.2788V35.9966C145.159 36.0171 145.269 36.0376 145.385 36.0376C146.311 36.0376 146.646 35.3027 146.718 34.1064L146.861 31.7651H148.533V36H149.298Z"
     fill="#1A1F6C"
     id="path3897" />
  <path
     d="M153.662 35.3027H151.296V33.8228H153.535V33.1597H151.296V31.7651H153.662V31.0679H150.531V36H153.662V35.3027Z"
     fill="#1A1F6C"
     id="path3899" />
  <path
     d="M158.828 36V31.0679H158.066V33.1392H155.533V31.0679H154.767V36H155.533V33.8364H158.066V36H158.828Z"
     fill="#1A1F6C"
     id="path3901" />
  <path
     d="M163.372 36H164.131V31.0679H163.386L160.88 34.7148H160.822V31.0679H160.063V36H160.809L163.314 32.3633H163.372V36Z"
     fill="#1A1F6C"
     id="path3903" />
  <path
     d="M169.232 36.1196C170.637 36.1196 171.492 35.1182 171.492 33.5322C171.492 31.9429 170.63 30.9482 169.232 30.9482C167.954 30.9482 167.11 31.7788 166.98 33.1392H166.132V31.0679H165.367V36H166.132V33.8364H166.973C167.069 35.2446 167.906 36.1196 169.232 36.1196ZM169.229 31.6626C170.141 31.6626 170.709 32.3872 170.709 33.5322C170.709 34.6704 170.145 35.4053 169.229 35.4053C168.303 35.4053 167.742 34.6704 167.742 33.5322C167.742 32.3872 168.32 31.6626 169.229 31.6626Z"
     fill="#1A1F6C"
     id="path3905" />
  <path
     d="M110.422 43V38.7686H112.667V38.0679H109.653V43H110.422Z"
     fill="#1A1F6C"
     id="path3907" />
  <path
     d="M115.52 37.9482C114.105 37.9482 113.216 38.9395 113.216 40.5322C113.216 42.1216 114.088 43.1196 115.52 43.1196C116.949 43.1196 117.817 42.1182 117.817 40.5322C117.817 38.9429 116.942 37.9482 115.52 37.9482ZM115.52 38.6626C116.456 38.6626 117.034 39.3872 117.034 40.5322C117.034 41.6704 116.456 42.4053 115.52 42.4053C114.573 42.4053 113.999 41.6704 113.999 40.5322C113.999 39.3872 114.59 38.6626 115.52 38.6626Z"
     fill="#1A1F6C"
     id="path3909" />
  <path
     d="M120.902 43.1196C122.002 43.1196 122.812 42.4702 122.949 41.4961H122.187C122.05 42.0532 121.554 42.4053 120.902 42.4053C120.013 42.4053 119.459 41.6841 119.459 40.5356C119.459 39.3838 120.013 38.6626 120.898 38.6626C121.547 38.6626 122.043 39.0522 122.187 39.6572H122.949C122.826 38.6523 121.985 37.9482 120.898 37.9482C119.527 37.9482 118.676 38.936 118.676 40.5356C118.676 42.1318 119.531 43.1196 120.902 43.1196Z"
     fill="#1A1F6C"
     id="path3911" />
  <path
     d="M124.455 43.0376C125.323 43.0376 125.695 42.5181 126.092 41.5884L127.603 38.0679H126.803L125.61 41.0449H125.552L124.325 38.0679H123.508L125.176 41.8892C124.991 42.207 124.755 42.3301 124.41 42.3301C124.246 42.3301 124.161 42.3096 124.126 42.2993V42.9932C124.161 43.0068 124.287 43.0376 124.455 43.0376Z"
     fill="#1A1F6C"
     id="path3913" />
  <path
     d="M129.409 41.062L129.559 38.7651H131.326V42.3027H129.077V42.2549C129.306 41.9814 129.375 41.6123 129.409 41.062ZM128.527 43H132.007V43.9741H132.707V42.3027H132.092V38.0679H128.879L128.698 41.021C128.66 41.6772 128.537 42.0908 128.185 42.3027H127.826V43.9741H128.527V43Z"
     fill="#1A1F6C"
     id="path3915" />
  <path
     d="M136.838 43H137.651L135.871 38.0679H135.047L133.266 43H134.052L134.507 41.6909H136.387L136.838 43ZM135.42 38.9634H135.478L136.192 41.0483H134.702L135.42 38.9634Z"
     fill="#1A1F6C"
     id="path3917" />
  <path
     d="M138.511 38.0679V43H139.277V41.3389H140.418C141.386 41.3389 142.069 40.6758 142.069 39.7119C142.069 38.7344 141.406 38.0679 140.442 38.0679H138.511ZM139.277 38.7446H140.241C140.914 38.7446 141.287 39.0864 141.287 39.7119C141.287 40.3237 140.9 40.6655 140.241 40.6655H139.277V38.7446Z"
     fill="#1A1F6C"
     id="path3919" />
  <path
     d="M145.093 43.1196C146.193 43.1196 147.003 42.4702 147.14 41.4961H146.378C146.241 42.0532 145.745 42.4053 145.093 42.4053C144.204 42.4053 143.65 41.6841 143.65 40.5356C143.65 39.3838 144.204 38.6626 145.089 38.6626C145.739 38.6626 146.234 39.0522 146.378 39.6572H147.14C147.017 38.6523 146.176 37.9482 145.089 37.9482C143.718 37.9482 142.867 38.936 142.867 40.5356C142.867 42.1318 143.722 43.1196 145.093 43.1196Z"
     fill="#1A1F6C"
     id="path3921" />
  <path
     d="M149.999 43V38.7651H151.547V38.0679H147.682V38.7651H149.233V43H149.999Z"
     fill="#1A1F6C"
     id="path3923" />
  <path
     d="M154.513 43C155.565 43 156.198 42.4702 156.198 41.6021C156.198 40.9595 155.753 40.4844 155.087 40.416V40.3579C155.572 40.2759 155.952 39.8145 155.952 39.2983C155.952 38.5396 155.394 38.0679 154.468 38.0679H152.486V43H154.513ZM153.251 38.7173H154.29C154.858 38.7173 155.189 38.9839 155.189 39.4385C155.189 39.9067 154.837 40.1562 154.161 40.1562H153.251V38.7173ZM153.251 42.3506V40.7612H154.314C155.036 40.7612 155.415 41.0312 155.415 41.5474C155.415 42.0703 155.049 42.3506 154.359 42.3506H153.251Z"
     fill="#1A1F6C"
     id="path3925" />
  <path
     d="M160.311 42.3027H157.946V40.8228H160.185V40.1597H157.946V38.7651H160.311V38.0679H157.18V43H160.311V42.3027Z"
     fill="#1A1F6C"
     id="path3927" />
  <path
     d="M165.478 43V38.0679H164.715V40.1392H162.183V38.0679H161.417V43H162.183V40.8364H164.715V43H165.478Z"
     fill="#1A1F6C"
     id="path3929" />
  <path
     d="M170.774 43V38.0679H170.012V40.1392H167.479V38.0679H166.713V43H167.479V40.8364H170.012V43H170.774Z"
     fill="#1A1F6C"
     id="path3931" />
  <path
     d="M176.952 43V38.0679H176.186V43H176.952ZM172.037 43H173.941C174.898 43 175.568 42.354 175.568 41.4072C175.568 40.4604 174.884 39.8145 173.917 39.8145H172.802V38.0679H172.037V43ZM172.802 42.3164V40.4912H173.739C174.399 40.4912 174.781 40.8193 174.781 41.4072C174.781 41.9917 174.402 42.3164 173.739 42.3164H172.802Z"
     fill="#1A1F6C"
     id="path3933" />
  <path
     d="M178.898 43V39.4385H178.946L180.392 42.8564H180.973L182.419 39.4385H182.467V43H183.178V38.0679H182.282L180.71 41.814H180.652L179.083 38.0679H178.187V43H178.898Z"
     fill="#1A1F6C"
     id="path3935" />
  <path
     d="M112.961 50H113.72V45.0679H112.975L110.47 48.7148H110.412V45.0679H109.653V50H110.398L112.903 46.3633H112.961V50Z"
     fill="#1A1F6C"
     id="path3937" />
  <path
     d="M115.667 50V46.4385H115.715L117.16 49.8564H117.742L119.187 46.4385H119.235V50H119.946V45.0679H119.051L117.478 48.814H117.42L115.851 45.0679H114.956V50H115.667Z"
     fill="#1A1F6C"
     id="path3939" />
  <path
     d="M121.742 50.0376C122.61 50.0376 122.983 49.5181 123.38 48.5884L124.89 45.0679H124.09L122.898 48.0449H122.839L121.612 45.0679H120.796L122.464 48.8892C122.279 49.207 122.043 49.3301 121.698 49.3301C121.534 49.3301 121.448 49.3096 121.414 49.2993V49.9932C121.448 50.0068 121.575 50.0376 121.742 50.0376Z"
     fill="#1A1F6C"
     id="path3941" />
  <path
     d="M131.95 50.9741V49.3027H131.335V45.0679H130.569V49.3027H128.922V45.0679H128.156V49.3027H126.512V45.0679H125.747V50H131.249V50.9741H131.95Z"
     fill="#1A1F6C"
     id="path3943" />
  <path
     d="M135.903 49.3027H133.538V47.8228H135.777V47.1597H133.538V45.7651H135.903V45.0679H132.772V50H135.903V49.3027Z"
     fill="#1A1F6C"
     id="path3945" />
  <path
     d="M139.046 50.1196C140.147 50.1196 140.957 49.4702 141.093 48.4961H140.331C140.194 49.0532 139.699 49.4053 139.046 49.4053C138.157 49.4053 137.604 48.6841 137.604 47.5356C137.604 46.3838 138.157 45.6626 139.043 45.6626C139.692 45.6626 140.188 46.0522 140.331 46.6572H141.093C140.97 45.6523 140.129 44.9482 139.043 44.9482C137.672 44.9482 136.821 45.936 136.821 47.5356C136.821 49.1318 137.675 50.1196 139.046 50.1196Z"
     fill="#1A1F6C"
     id="path3947" />
  <path
     d="M143.953 50V45.7651H145.501V45.0679H141.635V45.7651H143.187V50H143.953Z"
     fill="#1A1F6C"
     id="path3949" />
  <path
     d="M148.466 50C149.519 50 150.151 49.4702 150.151 48.6021C150.151 47.9595 149.707 47.4844 149.04 47.416V47.3579C149.526 47.2759 149.905 46.8145 149.905 46.2983C149.905 45.5396 149.348 45.0679 148.422 45.0679H146.439V50H148.466ZM147.205 45.7173H148.244C148.811 45.7173 149.143 45.9839 149.143 46.4385C149.143 46.9067 148.791 47.1562 148.114 47.1562H147.205V45.7173ZM147.205 49.3506V47.7612H148.268C148.989 47.7612 149.368 48.0312 149.368 48.5474C149.368 49.0703 149.003 49.3506 148.312 49.3506H147.205Z"
     fill="#1A1F6C"
     id="path3951" />
  <path
     d="M153.25 44.9482C151.835 44.9482 150.946 45.9395 150.946 47.5322C150.946 49.1216 151.817 50.1196 153.25 50.1196C154.678 50.1196 155.546 49.1182 155.546 47.5322C155.546 45.9429 154.671 44.9482 153.25 44.9482ZM153.25 45.6626C154.186 45.6626 154.764 46.3872 154.764 47.5322C154.764 48.6704 154.186 49.4053 153.25 49.4053C152.303 49.4053 151.729 48.6704 151.729 47.5322C151.729 46.3872 152.32 45.6626 153.25 45.6626Z"
     fill="#1A1F6C"
     id="path3953" />
  <path
     d="M157.305 50V46.4385H157.353L158.799 49.8564H159.38L160.826 46.4385H160.873V50H161.584V45.0679H160.689L159.117 48.814H159.058L157.49 45.0679H156.594V50H157.305Z"
     fill="#1A1F6C"
     id="path3955" />
  <path
     inkscape:connector-curvature="0"
     style="fill:#1a1f6c"
     d="m 184.63329,29.055288 v -4.2349 h 1.549 v -0.6972 h -3.866 v 0.6972 h 1.552 v 4.2349 z"
     id="path3877-3" />
</svg>
